<?xml version="1.0" encoding="UTF-8"?>
<svg width="198px" height="141px" viewBox="0 0 198 141" version="1.1" xmlns="http://www.w3.org/2000/svg" xmlns:xlink="http://www.w3.org/1999/xlink">
    <!-- Generator: Sketch 51 (57462) - http://www.bohemiancoding.com/sketch -->
    <title>doggo</title>
    <desc>Created with Sketch.</desc>
    <defs>
        <path d="M98.8549601,2.79306686 C113.133367,3.20120529 121.692393,5.48817674 124.532037,9.65398123 L129.742917,6.97836607 C130.814147,7.76193425 131.51838,8.65380597 131.855617,9.65398123 L131.855617,5.89356453 L132.861157,5.3772527 L138.824393,2.726572 L145.250623,2.726572 L150.520164,0.219085339 L156.289292,0.219085339 L161.6002,0.219085339 L168.812406,0.219085339 L178.283896,4.93653328 L183.65049,9.65398123 L187.317849,13.3802082 L192.972422,17.0109726 L197.692904,18.365811 L193.987509,25.0346117 L191.822097,33.1171195 L184.875595,46.9655737 L176.883777,51.5286903 L169.644523,46.9655737 L166.211048,54.4593949 L158.761776,58.3065413 L156.537495,68.3818328 L156.537495,76.676745 L154.488229,87.5897216 L154.488229,93.8329815 L151.716629,100.388086 L149.648271,105.110307 L145.686569,111.141958 L141.435298,114.508609 L136.929459,122.564069 L131.855617,131.295723 L131.300527,131.824578 L124.532037,134.118237 L116.311109,136.54458 L108.651819,140.757667 L98.2145646,140.757667 L89.0581015,140.757667 L81.3988117,136.54458 L73.177883,134.118237 L66.4093929,131.824578 L65.8543036,131.295723 L60.7804616,122.564069 L56.2746226,114.508609 L52.0233508,111.141958 L48.0616492,105.110307 L45.9932909,100.388086 L43.2216908,93.8329815 L43.2216908,87.5897216 L41.172425,76.676745 L41.172425,68.3818328 L38.9481443,58.3065413 L31.4988724,54.4593949 L28.0653977,46.9655737 L20.8261436,51.5286903 L12.8343254,46.9655737 L5.88782366,33.1171195 L3.72241164,25.0346117 L0.017016598,18.365811 L4.73749824,17.0109726 L10.3920716,13.3802082 L14.0594299,9.65398123 L19.4260242,4.93653328 L28.8975141,0.219085339 L36.1097204,0.219085339 L41.420628,0.219085339 L47.1897566,0.219085339 L52.4592971,2.726572 L58.8855272,2.726572 L64.8487633,5.3772527 L65.8543036,5.89356453 L65.8543036,9.65398123 C66.1915403,8.65380597 66.8957734,7.76193425 67.967003,6.97836607 L73.177883,9.65398123 C76.0175273,5.48817674 84.576553,3.20120529 98.8549601,2.79306686 Z" id="path-1"></path>
        <filter x="0.0%" y="0.0%" width="100.0%" height="102.8%" filterUnits="objectBoundingBox" id="filter-2">
            <feGaussianBlur stdDeviation="0" in="SourceGraphic"></feGaussianBlur>
        </filter>
        <filter x="-1.0%" y="-1.4%" width="102.0%" height="105.7%" filterUnits="objectBoundingBox" id="filter-3">
            <feOffset dx="0" dy="4" in="SourceAlpha" result="shadowOffsetOuter1"></feOffset>
            <feColorMatrix values="0 0 0 0 0   0 0 0 0 0   0 0 0 0 0  0 0 0 0.5 0" type="matrix" in="shadowOffsetOuter1"></feColorMatrix>
        </filter>
    </defs>
    <g id="Page-1" stroke="none" stroke-width="1" fill="none" fill-rule="evenodd">
        <g id="Combined-Shape" style="mix-blend-mode: lighten;" filter="url(#filter-2)">
            <use fill="black" fill-opacity="1" filter="url(#filter-3)" xlink:href="#path-1"></use>
            <use fill="#FCE4BD" fill-rule="evenodd" xlink:href="#path-1"></use>
        </g>
        <path d="M99,83 C101,83 104,88 108,98 L90,98 C94.6666667,88 97.6666667,83 99,83 Z" id="Triangle" fill="#242424" transform="translate(99.000000, 90.500000) scale(1, -1) translate(-99.000000, -90.500000) "></path>
        <circle id="Oval" fill="#242424" cx="73.5" cy="57.5" r="7.5"></circle>
        <circle id="Path" fill="#F9B1B1" cx="99" cy="110" r="3"></circle>
        <circle id="Oval" fill="#242424" cx="124.5" cy="57.5" r="7.5"></circle>
        <g id="Group" transform="translate(90.000000, 107.000000)">
            <path d="M1.0658141e-14,3 L18.9889157,3 C18.8162639,10.7766121 14.6315238,17 9.49445783,17 C4.35739182,17 0.172651756,10.7766121 1.06629115e-14,3 Z" id="Combined-Shape" fill="#F9B1B1"></path>
            <path d="M9.25,0.5 L9.25,6.5" id="Line" stroke="#979797" stroke-linecap="square"></path>
        </g>
        <g id="Group-2" transform="translate(81.000000, 102.000000)">
            <path d="M2.06189375,2 C2.55399184,5.94631158 5.92038235,9 10,9 C14.0796177,9 17.4460082,5.94631158 17.9381062,2 L2.06189375,2 Z" id="Combined-Shape" stroke="#979797" stroke-width="2"></path>
            <path d="M18.0618938,2 C18.5539918,5.94631158 21.9203823,9 26,9 C30.0796177,9 33.4460082,5.94631158 33.9381062,2 L18.0618938,2 Z" id="Combined-Shape" stroke="#979797" stroke-width="2"></path>
            <rect id="Rectangle-3" stroke="#FCE4BD" fill="#FCE4BD" x="0.5" y="0.5" width="35" height="3"></rect>
        </g>
    </g>
</svg>