<?xml version="1.0" encoding="UTF-8"?>
<svg width="288px" height="280px" viewBox="0 0 288 280" version="1.1" xmlns="http://www.w3.org/2000/svg" xmlns:xlink="http://www.w3.org/1999/xlink">
    <!-- Generator: Sketch 51 (57462) - http://www.bohemiancoding.com/sketch -->
    <title>Path</title>
    <desc>Created with Sketch.</desc>
    <defs>
        <path d="M58,238.306743 L58,228.306743 L58,215.306743 L58,202.306743 L66,192.306743 L73,180.306743 L79,171.306743 L79,162.306743 L94,148.306743 L105,141.306743 L116,128.306743 L136,108.306743 L151,95.3067429 L160,82.3067429 L170,69.3067429 L180,58.3067429 L180,44.3067429 L195,30.3067429 L202,24.3067429 L213,21.3067429 L220,21.3067429 L226,21.3067429 C229.59519,20.8977524 231.928523,20.8977524 233,21.3067429 C233.97227,21.6778654 233.97227,24.6778654 236,24.3067429 C241.15711,23.36287 245.490444,27.36287 249,36.3067429 L255,39.3067429 L264,44.3067429 L268,47.3067429 L271,54.3067429 L277,58.3067429 L277,69.3067429 L271,76.3067429 L255,76.3067429 L249,76.3067429 L236,82.3067429 L220,95.3067429 L220,108.306743 L220,128.306743 L220,141.306743 L213,148.306743 L202,171.306743 L195,180.306743 L195,202.306743 C191,197.640076 189,197.640076 189,202.306743 C189,209.306743 189,215.306743 189,215.306743 C189,215.306743 189,219.640076 189,228.306743 L195,246.306743 L202,257.306743 C209.333333,261.97341 213,264.306743 213,264.306743 C213,264.306743 213,268.306743 213,276.306743 L195,276.306743 L189,270.306743 L170,270.306743 L170,257.306743 C171.666667,255.306743 171.666667,251.640076 170,246.306743 C168.333333,240.97341 167.5,234.97341 167.5,228.306743 L160,215.306743 L160,202.306743 L151,228.306743 C141,229.640076 136,232.97341 136,238.306743 C136,243.640076 132.333333,249.97341 125,257.306743 L136,257.306743 L144,257.306743 L151,264.306743 L148,273.306743 C147.333333,271.306743 143.333333,272.306743 136,276.306743 C125,282.306743 105,276.306743 105,276.306743 C105,276.306743 101.333333,276.306743 94,276.306743 C92,272.306743 89,270.306743 85,270.306743 C81,270.306743 74.6666667,268.306743 66,264.306743 C60.6666667,254.97341 58,252.640076 58,257.306743 C58,261.97341 53.3333333,266.306743 44,270.306743 L32,270.306743 L22,270.306743 L11,270.306743 L11,264.306743 L32,257.306743 L44,246.306743 L58,238.306743 Z" id="path-1"></path>
        <filter x="-8.1%" y="-12.2%" width="116.2%" height="116.7%" filterUnits="objectBoundingBox" id="filter-2">
            <feOffset dx="0" dy="-10" in="SourceAlpha" result="shadowOffsetOuter1"></feOffset>
            <feGaussianBlur stdDeviation="5.5" in="shadowOffsetOuter1" result="shadowBlurOuter1"></feGaussianBlur>
            <feColorMatrix values="0 0 0 0 0   0 0 0 0 0   0 0 0 0 0  0 0 0 0.5 0" type="matrix" in="shadowBlurOuter1"></feColorMatrix>
        </filter>
    </defs>
    <g id="Page-1" stroke="none" stroke-width="1" fill="none" fill-rule="evenodd">
        <g id="Path">
            <use fill="black" fill-opacity="1" filter="url(#filter-2)" xlink:href="#path-1"></use>
            <use fill="#FCE4BD" fill-rule="evenodd" xlink:href="#path-1"></use>
        </g>
    </g>
</svg>